<svg preserveAspectRatio="none" overflow="visible" style="display: block;" width="96" height="30" viewBox="0 0 96 30" fill="none" xmlns="http://www.w3.org/2000/svg">
<g id="logos:spotify" clip-path="url(#clip0_0_4)">
<path id="Vector" d="M14.9353 0C6.687 0 0 6.68681 0 14.9351C0 23.1838 6.687 29.8701 14.9353 29.8701C23.1846 29.8701 29.8708 23.1838 29.8708 14.9351C29.8708 6.68738 23.1846 0.00075 14.9351 0.00075L14.9353 0ZM21.7847 21.5408C21.7209 21.6452 21.6372 21.736 21.5383 21.8081C21.4395 21.8801 21.3273 21.932 21.2084 21.9607C21.0894 21.9893 20.966 21.9942 20.8451 21.9752C20.7243 21.9561 20.6084 21.9133 20.5041 21.8494C16.9974 19.7074 12.5829 19.2223 7.38412 20.4101C7.1434 20.4649 6.89078 20.4218 6.6818 20.2904C6.47281 20.159 6.32456 19.9499 6.26962 19.7092C6.2423 19.5901 6.23874 19.4667 6.25914 19.3461C6.27955 19.2256 6.32353 19.1103 6.38855 19.0067C6.45358 18.9032 6.53839 18.8135 6.63811 18.7428C6.73784 18.6721 6.85054 18.6217 6.96975 18.5946C12.6591 17.2946 17.5391 17.8543 21.4761 20.2603C21.5805 20.3241 21.6712 20.4078 21.7432 20.5067C21.8153 20.6056 21.8671 20.7178 21.8957 20.8367C21.9244 20.9556 21.9293 21.079 21.9102 21.1999C21.8911 21.3207 21.8484 21.4366 21.7845 21.5409M23.6126 17.4742C23.2753 18.0221 22.5585 18.1952 22.0108 17.8581C17.9964 15.3906 11.8766 14.6758 7.12819 16.1173C6.8326 16.2067 6.51363 16.1753 6.24122 16.0298C5.96881 15.8844 5.7652 15.6368 5.67506 15.3414C5.58596 15.0459 5.61765 14.7271 5.76319 14.4549C5.90873 14.1827 6.15625 13.9793 6.4515 13.8892C11.8757 12.2434 18.6188 13.0406 23.229 15.8736C23.7765 16.2107 23.9496 16.9277 23.6124 17.4744M23.7692 13.2397C18.9562 10.3804 11.0141 10.1175 6.41831 11.5125C5.68031 11.7364 4.89994 11.3198 4.67644 10.5818C4.56891 10.2272 4.60658 9.84449 4.78115 9.51771C4.95571 9.19094 5.2529 8.94685 5.60738 8.83912C10.8831 7.2375 19.6534 7.54688 25.1953 10.8369C25.3533 10.9304 25.4913 11.054 25.6013 11.2009C25.7114 11.3477 25.7915 11.5148 25.8368 11.6926C25.8822 11.8705 25.8921 12.0555 25.8659 12.2371C25.8396 12.4188 25.7778 12.5934 25.6839 12.7511C25.2917 13.4149 24.432 13.6337 23.7703 13.2396L23.7692 13.2397ZM40.6337 13.7876C38.0548 13.1726 37.5966 12.7412 37.5966 11.8343C37.5966 10.9774 38.4026 10.4008 39.6028 10.4008C40.7657 10.4008 41.9179 10.8388 43.1271 11.7401C43.1627 11.7673 43.209 11.7782 43.2536 11.7711C43.276 11.7677 43.2975 11.7599 43.3169 11.7481C43.3362 11.7363 43.353 11.7207 43.3661 11.7022L44.6252 9.92737C44.6501 9.8922 44.6606 9.84886 44.6547 9.80618C44.6487 9.7635 44.6267 9.7247 44.5931 9.69769C43.1539 8.54325 41.5344 7.98206 39.6403 7.98206C36.8563 7.98206 34.9106 9.65288 34.9106 12.0437C34.9106 14.6074 36.5887 15.5153 39.4888 16.2159C41.9554 16.7843 42.3726 17.2603 42.3726 18.1116C42.3726 19.0551 41.5307 19.6417 40.1754 19.6417C38.6702 19.6417 37.4413 19.1336 36.0681 17.9456C36.0338 17.9167 35.9898 17.9021 35.9451 17.9047C35.9228 17.9064 35.9011 17.9124 35.8812 17.9225C35.8612 17.9325 35.8435 17.9465 35.829 17.9634L34.4166 19.6434C34.3882 19.6771 34.374 19.7205 34.377 19.7644C34.38 19.8084 34.4 19.8494 34.4327 19.8789C36.0306 21.3058 37.9959 22.0584 40.1183 22.0584C43.1183 22.0584 45.0568 20.4193 45.0568 17.8815C45.0621 15.7401 43.7799 14.5541 40.6391 13.7901L40.6337 13.7876ZM51.8447 11.2444C50.5446 11.2444 49.4781 11.7566 48.597 12.8063V11.625C48.597 11.5316 48.522 11.4557 48.4294 11.4557H46.1198C46.0751 11.456 46.0324 11.4739 46.001 11.5056C45.9696 11.5373 45.952 11.5802 45.9521 11.6248V24.7515C45.9521 24.8441 46.0271 24.9208 46.1198 24.9208H48.4294C48.474 24.9205 48.5168 24.9025 48.5482 24.8708C48.5796 24.8391 48.5971 24.7962 48.597 24.7515V20.6083C49.4781 21.5946 50.5446 22.0779 51.8445 22.0779C54.2614 22.0779 56.7083 20.2179 56.7083 16.6618C56.7118 13.1049 54.2648 11.2442 51.8464 11.2442L51.8447 11.2444ZM54.0223 16.6618C54.0223 18.4717 52.9076 19.7363 51.3096 19.7363C49.7312 19.7363 48.5398 18.4147 48.5398 16.6618C48.5398 14.9087 49.7312 13.5874 51.3096 13.5874C52.8808 13.5874 54.0223 14.88 54.0223 16.6618ZM62.9771 11.2442C59.865 11.2442 57.4269 13.6404 57.4269 16.7004C57.4269 19.7272 59.8489 22.0974 62.9396 22.0974C66.0624 22.0974 68.5076 19.7094 68.5076 16.6616C68.5076 13.6241 66.0786 11.2448 62.9771 11.2448V11.2442ZM62.9771 19.7539C61.3221 19.7539 60.0737 18.4234 60.0737 16.6607C60.0737 14.8899 61.2793 13.6048 62.9396 13.6048C64.6054 13.6048 65.8609 14.9348 65.8609 16.6993C65.8609 18.4699 64.6481 19.7539 62.9771 19.7539ZM75.1528 11.4555H72.6114V8.8575C72.6114 8.76431 72.5364 8.68838 72.4438 8.68838H70.1344C70.0895 8.68847 70.0465 8.70631 70.0148 8.738C69.983 8.76968 69.9651 8.81264 69.9649 8.8575V11.4553H68.8556C68.811 11.4556 68.7683 11.4736 68.7369 11.5053C68.7055 11.537 68.6879 11.5798 68.688 11.6244V13.6089C68.6878 13.6536 68.7054 13.6965 68.7368 13.7282C68.7682 13.76 68.811 13.778 68.8556 13.7783H69.9649V18.9139C69.9649 20.988 70.9976 22.0402 73.0361 22.0402C73.8636 22.0402 74.5502 21.8689 75.1976 21.5016C75.2238 21.4872 75.2456 21.466 75.2607 21.4403C75.2758 21.4145 75.2836 21.3852 75.2833 21.3553V19.4647C75.2831 19.4361 75.2756 19.4081 75.2616 19.3831C75.2476 19.3582 75.2274 19.3373 75.2031 19.3223C75.1788 19.3066 75.1508 19.2977 75.1219 19.2964C75.0931 19.2951 75.0644 19.3015 75.0388 19.3149C74.5948 19.5381 74.1651 19.6414 73.6834 19.6414C72.9433 19.6414 72.6116 19.3043 72.6116 18.5516V13.7794H75.153C75.1977 13.7791 75.2404 13.7611 75.2718 13.7294C75.3032 13.6976 75.3208 13.6547 75.3206 13.6101V11.6256C75.3214 11.6034 75.3177 11.5814 75.3096 11.5607C75.3016 11.5401 75.2895 11.5212 75.274 11.5054C75.2585 11.4896 75.24 11.4771 75.2195 11.4686C75.199 11.4602 75.177 11.456 75.1549 11.4562L75.1528 11.4555ZM84.006 11.4656V11.1465C84.006 10.2079 84.3662 9.78937 85.1723 9.78937C85.6541 9.78937 86.0409 9.885 86.4744 10.0294C86.4998 10.0379 86.5269 10.0402 86.5533 10.0362C86.5798 10.0321 86.6049 10.0218 86.6266 10.006C86.6482 9.99028 86.6658 9.96958 86.6778 9.94565C86.6898 9.92173 86.696 9.89527 86.6957 9.8685L86.6955 7.92281C86.696 7.88646 86.6846 7.85094 86.663 7.82167C86.6415 7.79239 86.6109 7.77096 86.5761 7.76062C86.1195 7.6245 85.5345 7.485 84.657 7.485C82.5257 7.485 81.3967 8.68594 81.3967 10.9568V11.4454H80.2875C80.2426 11.4455 80.1996 11.4633 80.1679 11.495C80.1361 11.5267 80.1182 11.5696 80.118 11.6145V13.6091C80.118 13.7023 80.1949 13.7784 80.2875 13.7784H81.3967V21.6979C81.3967 21.7924 81.4736 21.8674 81.5662 21.8674H83.874C83.9685 21.8674 84.0435 21.7924 84.0435 21.6979V13.7788H86.1997L89.5027 21.6977C89.1281 22.5289 88.7589 22.6946 88.2559 22.6946C87.8494 22.6946 87.4196 22.5735 86.9827 22.3328C86.9413 22.3118 86.8935 22.3073 86.8489 22.3202C86.8269 22.3276 86.8066 22.3396 86.7894 22.3552C86.7722 22.3709 86.7584 22.3899 86.7489 22.4111L85.9661 24.1286C85.9481 24.1676 85.9456 24.212 85.9592 24.2528C85.9728 24.2936 86.0014 24.3276 86.0393 24.348C86.856 24.7903 87.5925 24.9793 88.5039 24.9793C90.2089 24.9793 91.1524 24.1839 91.9817 22.0474L95.9874 11.6966C95.9979 11.671 96.0017 11.6432 95.9986 11.6158C95.9955 11.5883 95.9855 11.5621 95.9696 11.5395C95.9545 11.5169 95.9341 11.4983 95.9101 11.4855C95.8862 11.4727 95.8594 11.466 95.8322 11.466H93.4281C93.3928 11.4658 93.3584 11.4766 93.3296 11.4969C93.3008 11.5173 93.2791 11.5461 93.2676 11.5794L90.8046 18.6124L88.1079 11.5747C88.0958 11.5429 88.0743 11.5155 88.0463 11.496C88.0183 11.4766 87.9851 11.4662 87.951 11.466H84.006V11.4656ZM78.8732 11.4555H76.5636C76.5187 11.4557 76.4758 11.4736 76.4441 11.5052C76.4124 11.5369 76.3945 11.5798 76.3943 11.6246V21.6979C76.3943 21.7924 76.4709 21.8674 76.5636 21.8674H78.8732C78.966 21.8674 79.0427 21.7924 79.0427 21.6979V11.6254C79.0428 11.6031 79.0384 11.581 79.0299 11.5605C79.0214 11.5399 79.009 11.5212 78.9932 11.5054C78.9774 11.4897 78.9587 11.4772 78.9381 11.4687C78.9175 11.4603 78.8955 11.456 78.8732 11.4561V11.4555ZM77.7317 6.8685C76.8167 6.8685 76.0749 7.60912 76.0749 8.52375C76.0749 8.74132 76.1177 8.95677 76.201 9.15779C76.2843 9.35881 76.4063 9.54146 76.5601 9.6953C76.714 9.84915 76.8966 9.97119 77.0976 10.0544C77.2987 10.1377 77.5141 10.1805 77.7317 10.1805C78.6467 10.1805 79.3867 9.43912 79.3867 8.52375C79.3866 8.08481 79.2123 7.66388 78.9019 7.35349C78.5915 7.0431 78.1706 6.86865 77.7317 6.8685Z" fill="white"/>
</g>
<defs>
<clipPath id="clip0_0_4">
<rect width="96" height="30" fill="white"/>
</clipPath>
</defs>
</svg>
